HIERARCHY
ROOT Hips
{
	OFFSET -3.958830 18.904000 13.208200
	CHANNELS 6 Xposition Yposition Zposition Zrotation Yrotation Xrotation 
	JOINT LHipJoint
	{
		OFFSET 0.000000 0.000000 0.000000
		CHANNELS 3 Zrotation Yrotation Xrotation
		JOINT LeftUpLeg
		{
			OFFSET 1.800000 -1.400000 0.085000
			CHANNELS 3 Zrotation Yrotation Xrotation
			JOINT LeftLeg
			{
				OFFSET 2.215000 -6.000000 0.000000
				CHANNELS 3 Zrotation Yrotation Xrotation
				JOINT LeftFoot
				{
					OFFSET 2.500000 -6.900000 0.000000
					CHANNELS 3 Zrotation Yrotation Xrotation
					JOINT LeftToeBase
					{
						OFFSET 0.200000 -0.500000 1.950000
						CHANNELS 3 Zrotation Yrotation Xrotation
						End Site
						{
							OFFSET 0.000000 0.000000 0.000000
						}
					}
				}
			}
		}
	}
	JOINT RHipJoint
	{
		OFFSET 0.000000 0.000000 0.000000
		CHANNELS 3 Zrotation Yrotation Xrotation
		JOINT RightUpLeg
		{
			OFFSET -1.800000 -1.400000 0.085000
			CHANNELS 3 Zrotation Yrotation Xrotation
			JOINT RightLeg
			{
				OFFSET -2.215000 -6.000000 0.000000
				CHANNELS 3 Zrotation Yrotation Xrotation
				JOINT RightFoot
				{
					OFFSET -2.500000 -6.900000 0.000000
					CHANNELS 3 Zrotation Yrotation Xrotation
					JOINT RightToeBase
					{
						OFFSET -0.200000 -0.500000 1.950000
						CHANNELS 3 Zrotation Yrotation Xrotation
						End Site
						{
							OFFSET 0.000000 0.000000 0.000000
						}
					}
				}
			}
		}
	}
	JOINT LowerBack
	{
		OFFSET 0.000000 0.000000 0.000000
		CHANNELS 3 Zrotation Yrotation Xrotation
		JOINT Spine
		{
			OFFSET -0.087000 1.940000 -0.288900
			CHANNELS 3 Zrotation Yrotation Xrotation
			JOINT Spine1
			{
				OFFSET 0.000000 1.950000 0.060000
				CHANNELS 3 Zrotation Yrotation Xrotation
				JOINT Neck
				{
					OFFSET 0.000000 0.000000 0.000000
					CHANNELS 3 Zrotation Yrotation Xrotation
					JOINT Neck1
					{
						OFFSET 0.000000 1.600000 0.340000
						CHANNELS 3 Zrotation Yrotation Xrotation
						JOINT Head
						{
							OFFSET 0.000000 1.667000 -0.240000
							CHANNELS 3 Zrotation Yrotation Xrotation
							End Site
							{
								OFFSET 0.000000 0.000000 0.000000
							}
						}
					}
				}
				JOINT LeftShoulder
				{
					OFFSET 0.000000 0.000000 0.000000
					CHANNELS 3 Zrotation Yrotation Xrotation
					JOINT LeftArm
					{
						OFFSET 2.700000 1.550000 -0.730000
						CHANNELS 3 Zrotation Yrotation Xrotation
						JOINT LeftForeArm
						{
							OFFSET 5.450000 0.000000 0.000000
							CHANNELS 3 Zrotation Yrotation Xrotation
							JOINT LeftHand
							{
								OFFSET 3.450000 0.000000 0.000000
								CHANNELS 3 Zrotation Yrotation Xrotation
								JOINT LeftHandIndex1
								{
									OFFSET 0.750000 0.000000 0.000000
									CHANNELS 3 Zrotation Yrotation Xrotation
									End Site
									{
										OFFSET 0.000000 0.000000 0.000000
									}
								}
							}
						}
					}
				}
				JOINT RightShoulder
				{
					OFFSET 0.000000 0.000000 0.000000
					CHANNELS 3 Zrotation Yrotation Xrotation
					JOINT RightArm
					{
						OFFSET -2.700000 1.550000 -0.730000
						CHANNELS 3 Zrotation Yrotation Xrotation
						JOINT RightForeArm
						{
							OFFSET -5.450000 0.000000 0.000000
							CHANNELS 3 Zrotation Yrotation Xrotation
							JOINT RightHand
							{
								OFFSET -3.450000 0.000000 0.000000
								CHANNELS 3 Zrotation Yrotation Xrotation
								JOINT RightHandIndex1
								{
									OFFSET -0.750000 0.000000 0.000000
									CHANNELS 3 Zrotation Yrotation Xrotation
									End Site
									{
										OFFSET 0.000000 0.000000 0.000000
									}
								}
							}
						}
					}
				}
			}
		}
	}
}
MOTION
Frames: 14
Frame Time: 0.016667
0.561280 16.959600 -7.471800 2.738641 -16.516090 10.440213 -15.347661 13.229841 3.631335 2.190276 -5.090193 -19.543988 -12.675950 5.371689 9.798700 -0.471984 3.949976 3.373579 0.154540 0.001530 -0.193900 18.103587 -9.910164 2.961885 -15.363781 -0.074148 -35.460482 1.153981 -3.513860 12.257074 0.170027 -2.302521 3.605885 0.087610 0.703200 0.111040 -2.904565 -3.409528 -7.707438 -4.356108 -3.029574 18.489364 -5.654906 -3.876747 -2.214250 -2.500269 -7.786830 -2.384829 -17.615118 11.350423 28.479682 10.071870 2.718280 -4.238810 -23.962366 13.331442 -3.017725 -53.361802 -9.361239 5.244832 -172.830863 -61.977905 159.687291 -3.720389 3.553842 0.281530 0.291380 -0.305240 0.290590 28.942048 -10.535900 -3.058583 52.922662 -10.829423 -12.279912 26.785489 20.677743 1.670338 2.130685 -1.291910 -0.298870 0.402280 0.182500 0.028220 
0.560480 16.957650 -7.483620 2.781295 -16.556468 9.877182 -15.236088 13.099798 3.702143 3.060445 -5.071279 -18.670671 -14.382181 5.509071 9.063282 -0.413508 4.084047 3.291020 0.177820 0.009590 -0.118440 18.173811 -10.123501 2.917726 -14.733367 -0.115305 -34.070719 0.249551 -3.221051 10.641180 0.118311 -2.151981 3.639918 0.052410 0.592620 0.137940 -3.159748 -2.879278 -7.835855 -3.200580 -2.835653 20.189431 -8.059459 -4.004721 -2.934016 -1.520442 -7.192799 -2.523749 -16.474801 10.748393 30.643864 9.045950 3.677570 -6.263880 -25.749846 11.712727 -3.512508 -50.225345 -10.688209 4.547344 -174.868167 -62.068472 163.326312 -3.679119 3.537340 0.355170 0.226980 -0.217980 0.255020 28.620395 -10.164047 -2.793774 55.710311 -10.353992 -12.467868 25.492010 18.124166 1.018549 2.209946 -1.210759 -0.262150 0.345780 0.159810 -0.010810 
0.555020 16.956460 -7.487690 2.482877 -16.312034 10.122632 -15.151826 12.939073 3.745459 3.960644 -5.128890 -18.541432 -15.535482 5.495263 8.229352 -0.388269 4.172134 3.246793 0.198100 0.016180 -0.076630 18.247553 -10.212057 2.927139 -14.368532 -0.006111 -33.536057 0.247184 -3.135914 9.658253 0.089090 -2.104993 3.646288 0.040470 0.549340 0.163470 -3.401428 -2.472402 -7.907968 -1.541435 -3.000782 20.480725 -10.060768 -4.215257 -2.896241 -0.833742 -6.716387 -2.616433 -15.379548 10.286577 31.776879 8.272600 4.191770 -7.041500 -26.581664 10.544090 -3.670347 -48.459910 -12.011960 4.507998 -176.934520 -62.519218 167.127287 -3.665572 3.536290 0.386780 0.207590 -0.179160 0.246750 27.894291 -9.929604 -2.634404 57.493783 -9.444483 -12.042213 25.208186 16.172338 0.704751 2.253069 -1.188448 -0.243540 0.316980 0.145650 -0.029370 
0.546450 16.954950 -7.489470 2.082035 -15.882036 10.660359 -15.102260 12.773860 3.787968 4.885169 -5.215267 -18.596334 -16.637969 5.388262 7.067077 -0.387459 4.264168 3.205633 0.204250 0.019930 -0.063160 18.307982 -10.197372 2.944289 -14.459473 0.111834 -33.391813 1.126810 -3.231467 9.257504 0.081244 -2.128848 3.624550 0.049880 0.538290 0.162080 -3.587698 -2.238496 -7.941981 0.098774 -3.250498 20.017336 -11.501995 -4.273600 -2.106157 -0.477154 -6.575297 -2.792411 -14.988469 9.991785 32.087990 8.033930 4.214810 -7.393690 -26.508402 9.664728 -3.609896 -48.222904 -13.552655 5.144808 -178.825310 -63.132910 170.527325 -3.664837 3.523069 0.396440 0.202750 -0.175820 0.236960 26.885963 -9.504575 -2.343091 58.481620 -8.649170 -11.539902 26.410893 15.095213 0.673312 2.265306 -1.195952 -0.249680 0.319240 0.150030 -0.040760 
0.535740 16.954510 -7.491360 1.684928 -15.117008 11.203344 -15.072422 12.644933 3.815507 5.787717 -5.363760 -19.032837 -17.342018 5.353632 6.565135 -0.399668 4.355325 3.163350 0.214320 0.031720 -0.065370 18.353127 -10.147826 2.957148 -14.701364 0.218182 -33.204668 2.191189 -3.343303 8.900190 0.084541 -2.186727 3.594960 0.073420 0.550740 0.160520 -3.724697 -2.126267 -7.940532 1.459421 -3.748838 19.389682 -12.237929 -4.570786 -1.368901 -0.443499 -6.637721 -2.763546 -14.915559 10.015669 31.774550 8.309870 4.023270 -7.342430 -26.435444 9.214431 -3.543910 -47.992503 -14.495690 5.794160 179.604510 -63.100735 173.235281 -3.680727 3.531899 0.385950 0.213090 -0.192420 0.236040 26.605111 -9.233247 -2.305639 57.944944 -7.759682 -10.704008 28.310820 14.812018 0.890516 2.251590 -1.237778 -0.257620 0.327320 0.158150 -0.041540 
0.522130 16.966680 -7.498860 1.431706 -14.852035 11.500756 -15.054248 12.557984 3.834777 6.391239 -5.407247 -19.149779 -17.831246 5.281656 5.981970 -0.396567 4.420336 3.142880 0.232740 0.052960 -0.064090 18.381711 -10.109094 2.962190 -14.785740 0.321385 -32.942626 2.862914 -3.366753 8.454424 0.081637 -2.220139 3.581351 0.094360 0.567760 0.165800 -3.811231 -2.058023 -7.934808 2.299768 -4.037705 19.037543 -12.533010 -4.707447 -0.841748 -0.579345 -6.937506 -2.727640 -15.414710 10.181128 31.455994 8.482340 3.762480 -7.309710 -26.804500 8.725837 -3.493053 -47.272782 -15.009200 5.890265 178.112687 -63.279512 175.676673 -3.699251 3.538098 0.372430 0.223760 -0.201930 0.246320 27.122232 -8.605254 -2.206461 56.653122 -7.102904 -10.048606 30.104189 15.185342 1.191565 2.229051 -1.287609 -0.255290 0.338070 0.156280 -0.033300 
0.508980 16.964850 -7.501030 1.293224 -15.083235 12.246947 -15.058545 12.461868 3.828877 6.620950 -5.462778 -19.634456 -18.048437 5.214732 5.584142 -0.428300 4.451752 3.134184 0.229150 0.058610 -0.103750 18.406336 -10.016305 2.999316 -14.780148 0.546192 -33.475535 3.335539 -3.338128 8.144888 0.109705 -2.244046 3.576691 0.125960 0.617960 0.158150 -3.866352 -2.023683 -7.886168 2.881926 -4.115552 17.850960 -12.679482 -4.698135 -0.410535 -0.879422 -7.323613 -2.494623 -15.913375 10.485143 30.383380 8.999950 3.312800 -6.645530 -26.354384 9.359146 -3.615459 -47.560467 -15.307199 6.564500 177.225446 -63.130441 177.276837 -3.730348 3.559087 0.341120 0.256120 -0.246220 0.259050 27.137257 -8.904555 -2.457452 55.901688 -6.498046 -9.314834 31.227903 15.289550 1.421683 2.198862 -1.327502 -0.275410 0.363010 0.177690 -0.019450 
0.491560 16.969650 -7.500110 0.993988 -15.501827 12.588756 -15.058146 12.417870 3.820428 7.033975 -5.367879 -19.589227 -18.100603 5.117243 5.039167 -0.423503 4.472363 3.131778 0.243670 0.077250 -0.110480 18.415619 -9.980631 3.015354 -14.382749 0.788903 -33.437666 3.460188 -3.218657 7.553615 0.112144 -2.222336 3.587678 0.140090 0.640840 0.177640 -3.891434 -1.983007 -7.863621 3.167486 -4.054718 17.304024 -12.567059 -4.568496 -0.159538 -1.034505 -7.367740 -2.355554 -15.892066 10.674927 30.174090 9.083220 3.314190 -6.318030 -26.287217 9.474072 -3.597172 -47.198329 -15.323486 6.767801 176.441584 -62.819538 178.612729 -3.751089 3.586044 0.322430 0.275970 -0.252580 0.275600 27.322344 -8.866740 -2.656325 55.124056 -5.802925 -8.653447 31.827544 14.764086 1.454767 2.188147 -1.363043 -0.265340 0.362410 0.175000 -0.005700 
0.476880 16.973590 -7.498840 0.917217 -15.608724 12.913407 -15.063556 12.395107 3.813643 7.119706 -5.344578 -19.658245 -17.970301 5.007039 4.650410 -0.423465 4.439421 3.149208 0.247680 0.085330 -0.111520 18.415134 -9.944330 3.036439 -14.267298 0.899661 -33.258103 3.616381 -3.100107 6.732816 0.117122 -2.209511 3.603775 0.146250 0.648540 0.174800 -3.890336 -1.984553 -7.861734 3.174035 -4.068269 16.966599 -12.485781 -4.620106 -0.311218 -1.080792 -7.289545 -2.217917 -15.655548 10.758291 30.031115 9.022150 3.478530 -5.970930 -26.199899 9.787341 -3.637569 -46.922576 -15.354706 7.169158 175.359387 -62.179697 -179.370882 -3.759101 3.599347 0.309060 0.285930 -0.260870 0.282630 27.344300 -9.216623 -2.913624 54.763465 -5.382322 -8.111462 31.977365 14.113011 1.422884 2.189761 -1.375442 -0.264860 0.363120 0.168270 -0.002720 
0.461890 16.974990 -7.498850 0.550627 -15.659791 13.379678 -15.063466 12.358171 3.817405 7.498688 -5.329309 -19.947934 -17.852388 4.880467 4.191558 -0.427845 4.415512 3.157602 0.240780 0.088710 -0.118570 18.422916 -9.899365 3.052119 -13.842706 1.116804 -33.118965 3.719470 -2.962701 5.981982 0.123139 -2.176466 3.617063 0.150970 0.656880 0.174090 -3.912629 -1.986329 -7.853958 3.618612 -4.100617 16.613991 -12.398823 -4.576514 -0.237012 -1.105001 -7.257167 -2.159157 -15.492478 10.726919 29.677246 8.717570 3.634940 -5.899300 -25.920420 9.992307 -3.615231 -47.140418 -15.585751 7.586226 173.648701 -61.868835 -176.475507 -3.774237 3.602884 0.295330 0.295490 -0.265500 0.281670 27.083087 -9.422442 -3.054142 54.711958 -5.012253 -7.835528 31.677137 13.701145 1.346306 2.195215 -1.375556 -0.265810 0.366800 0.171330 0.002700 
0.448390 16.980880 -7.498720 0.425134 -15.346027 13.482339 -15.057085 12.398484 3.799047 7.371764 -5.305064 -20.130505 -17.284918 4.817940 4.273076 -0.446361 4.339579 3.188185 0.214780 0.059800 -0.134840 18.421887 -9.894256 3.069737 -13.823748 1.139140 -32.786875 4.038714 -2.951772 5.578970 0.133350 -2.179149 3.630972 0.134930 0.664350 0.158420 -3.917208 -2.052528 -7.863813 3.812349 -4.248204 16.874149 -12.209131 -4.700326 -0.411410 -1.190545 -7.265672 -2.359438 -15.642546 10.610649 29.692874 8.975180 3.402940 -5.736100 -25.628203 9.805500 -3.412788 -47.321043 -15.778831 7.903655 171.300458 -61.301296 -172.613493 -3.790577 3.577886 0.297970 0.295670 -0.277010 0.272200 27.002746 -9.274695 -2.904226 54.627426 -5.230988 -8.123649 31.196296 14.590269 1.477176 2.190973 -1.349765 -0.278810 0.376830 0.185350 -0.000190 
0.438040 16.978280 -7.496660 0.623254 -14.980694 13.555731 -15.100138 12.465544 3.797525 7.073830 -5.346377 -20.283906 -16.938655 4.770451 4.345498 -0.483490 4.311015 3.201571 0.196280 0.030510 -0.142170 18.379631 -9.840653 3.065209 -14.068480 1.066451 -32.599099 4.208684 -2.969876 5.397300 0.143619 -2.201438 3.628266 0.128990 0.677190 0.153020 -3.788866 -2.266434 -7.864670 3.117747 -4.229860 16.887959 -11.485784 -4.604453 -0.212026 -1.244349 -6.961579 -2.443724 -15.146454 10.253375 29.587714 8.899180 3.269510 -5.714730 -25.029144 9.745485 -3.291610 -47.964933 -16.466418 8.637753 168.812137 -61.059952 -168.475342 -3.815343 3.555374 0.307210 0.306280 -0.293360 0.261590 26.655122 -9.314432 -2.831850 54.491542 -5.337726 -8.347159 30.942640 15.667359 1.674525 2.168602 -1.334987 -0.300760 0.386940 0.204380 -0.012550 
0.435870 16.986730 -7.503760 0.457195 -14.104114 13.649066 -15.093168 12.527603 3.807497 7.091526 -5.427280 -20.893107 -16.508749 4.826934 4.965004 -0.504198 4.272432 3.222018 0.171400 -0.006560 -0.153100 18.376564 -9.852735 3.050146 -13.820116 1.063530 -32.373879 4.023270 -2.967366 5.468989 0.151867 -2.177419 3.653728 0.106830 0.686930 0.143810 -3.786819 -2.379638 -7.879737 3.554333 -4.556680 17.409256 -11.287197 -4.834803 -0.247061 -1.193132 -6.800543 -2.765520 -15.041499 9.890786 29.827165 8.879040 3.049740 -5.460730 -24.198630 9.461382 -3.018538 -48.661744 -17.260345 9.344359 166.054807 -60.975133 -164.027060 -3.829012 3.519453 0.321410 0.307970 -0.300470 0.259370 25.798391 -9.257265 -2.564209 54.634115 -5.497905 -8.652587 30.856672 16.991043 1.963031 2.157815 -1.315383 -0.318100 0.397350 0.214300 -0.019260 
0.438000 16.996850 -7.510600 0.549239 -12.802160 13.484085 -15.093755 12.610690 3.811801 6.790527 -5.519852 -21.303462 -15.923165 4.794803 5.428685 -0.521941 4.184459 3.247981 0.165880 -0.019050 -0.140030 18.364137 -9.851983 3.026776 -14.056924 0.873683 -31.652248 4.046594 -2.969920 5.103782 0.138474 -2.186921 3.649602 0.091290 0.664110 0.140300 -3.763285 -2.568035 -7.897456 3.862950 -5.015123 18.339388 -10.832295 -5.138948 -0.055895 -1.282863 -6.871496 -3.154928 -15.485472 9.382147 29.835265 8.673180 2.719460 -6.183700 -23.227313 9.055041 -2.638054 -49.775641 -18.390119 10.246602 162.760935 -60.844536 -158.919744 -3.828663 3.487080 0.339670 0.288610 -0.285700 0.246500 25.080139 -8.902914 -2.242545 54.355321 -5.621364 -9.030091 30.986370 18.596687 2.332622 2.152291 -1.302634 -0.315890 0.394600 0.215010 -0.027880 
